<?xml version="1.0"?>
<svg xmlns="http://www.w3.org/2000/svg" id="icon" viewBox="0 0 340 340">
  <path d="M250.071,174.476H217.964a6.43,6.43,0,0,0-6.43,6.43v54.416l45.882,1.363Z" style="fill:#ffc362"/>
  <rect height="7" style="fill:#fa883e" width="45.882" x="211.535" y="189.562"/>
  <rect height="7" style="fill:#fa883e" width="45.882" x="211.535" y="212.994"/>
  <path d="M268.459,180.906a6.43,6.43,0,0,0-6.43-6.43H250.071v59.431H211.534v62.759h56.925Z" style="fill:#fa883e"/>
  <path d="M307.829,221.529h-32.94a6.43,6.43,0,0,0-6.43,6.43v29.4l45.152,6.28Z" style="fill:#ffc362"/>
  <rect height="7" style="fill:#fa883e" width="40.936" x="268.458" y="236.685"/>
  <path d="M318.954,221.529H307.829v35.827h-39.37v39.31h56.924V227.959A6.429,6.429,0,0,0,318.954,221.529Z" style="fill:#fa883e"/>
  <path d="M76.73,151.339c-4.4,7.536-10.9,18.393-17.827,28.9C39.04,210.372-10.147,266.505,27.341,310.2a55.349,55.349,0,0,0,42.1,18.938h70.475a55.173,55.173,0,0,0,17.811-2.894c17.164-5.85,47.891-22.01,37.22-60.983-14.557-53.165-48.58-111.393-48.58-111.393Z" style="fill:#ffe9d3"/>
  <path d="M146.337,153.815l-7.407-16.084-56.572,3.774s-2.157,3.883-5.628,9.834L135.876,159Z" style="fill:#ce917e"/>
  <path d="M140.735,10.529A81.018,81.018,0,0,1,145.249,35.8H112.421S121.566,17.031,140.735,10.529Z" style="fill:#ce917e"/>
  <path d="M37.66,47.8S22.7,36.258,51.413,23.8a59.819,59.819,0,0,1,24.853-4.855,72.183,72.183,0,0,0,23.9-3.522,106.064,106.064,0,0,1,40.572-4.891s.187,5.42-17.939,19.248c0,0,2.03,3.856,27.856,2.055,33.635-2.346,26.773,13.244,26.773,13.244L156.432,72.569l-83.6,1.121Z" style="fill:#874f4f"/>
  <path d="M72.828,60.958s-9.3-9.3,16.563-20.42c0,0-29.5-2.042-51.731,7.261,0,0,32.446,33.58,43.563,64.437h22.689S99,77.209,72.828,60.958Z" style="fill:#ce917e"/>
  <path d="M147.022,63.227s3.63-7.26-1.362-12.479c0,0,22.916,2.269,31.765-5.672,0,0-19.059,55.588-39.025,67.16H127.055Z" style="fill:#ce917e"/>
  <path d="M72.828,60.958a60.641,60.641,0,0,0,23.6-2.8l15.2,9.383s18.378,2.269,35.395-4.311l-15.2,49.009H99.148S93.248,79.337,72.828,60.958Z" style="fill:#ffe9d3"/>
  <ellipse cx="298.512" cy="298.841" rx="25.28" ry="32.936" style="fill:#ffc362" transform="translate(-114.786 211.661) rotate(-33.12)"/>
  <path d="M283.152,269.82a19.781,19.781,0,0,0-2.635,1.436c-11.694,7.629-13.116,26.164-3.177,41.4a38.619,38.619,0,0,0,18.254,15.206c7.493-12.744,6.255-31.859-4.432-48.239A58.829,58.829,0,0,0,283.152,269.82Z" style="fill:#fa883e"/>
  <path d="M107.341,112.236H118.1a220.7,220.7,0,0,0-6.471-44.7l-1.362-16.79a44.814,44.814,0,0,1-13.84,7.4C103.937,75.161,106.517,100.529,107.341,112.236Z" style="fill:#ce917e"/>
  <path d="M145.262,131.405s11.3,25.6,3.44,49.193-25.442,35.383-17.8,65.687c0,0-29.1-20.148-1.883-73.222C129.02,173.063,142.805,147.407,145.262,131.405Z" style="fill:#874f4f"/>
  <rect height="16.336" rx="8.168" style="fill:#d88783" width="76.462" x="74.19" y="108.833"/>
  <path d="M74.19,133.337a8.168,8.168,0,0,0,8.168,8.168H141.2l-7.493-16.336H82.358A8.168,8.168,0,0,0,74.19,133.337Z" style="fill:#874f4f"/>
  <path d="M133.711,125.169s2.46,16.41-10.375,36.715C108.111,185.971,84.1,248.512,145.45,269.467a6.729,6.729,0,0,0,7.926-2.889h0a6.728,6.728,0,0,0-2.812-9.52c-14.717-7.24-45.739-29.908-17.141-84.511,0,0,12.457-19.979,13.638-40.7a6.362,6.362,0,0,0-6.38-6.673Z" style="fill:#d88783"/>
  <path d="M123.018,260.045a55.429,55.429,0,0,1,10.559-17.572,7.394,7.394,0,0,1,10.467-.232h0a7.432,7.432,0,0,1,1.269,9.2,136.169,136.169,0,0,0-7.629,14.535,7.481,7.481,0,0,1-9.323,4.092q-.593-.2-1.189-.435A7.413,7.413,0,0,1,123.018,260.045Z" style="fill:#874f4f"/>
  <ellipse cx="261.702" cy="298.841" rx="25.28" ry="32.936" style="fill:#ffc362" transform="translate(-120.766 191.548) rotate(-33.12)"/>
  <path d="M221.077,243.016H187.416a6.429,6.429,0,0,0-6.429,6.429v68.14a9.71,9.71,0,0,0,9.71,9.711h30.38C224.222,300.839,223.892,272.574,221.077,243.016Z" style="fill:#ffc362"/>
  <rect height="7" style="fill:#fa883e" width="50.539" x="180.987" y="256.322"/>
  <rect height="7" style="fill:#fa883e" width="50.539" x="180.987" y="276.593"/>
  <rect height="7" style="fill:#fa883e" width="50.539" x="180.987" y="296.865"/>
  <path d="M231.481,243.015h-10.4V327.3H228.2a9.71,9.71,0,0,0,9.71-9.711v-68.14A6.43,6.43,0,0,0,231.481,243.015Z" style="fill:#fa883e"/>
  <path d="M47.532,190.541c-11.3,16.045-25.366,36.014-32.62,57.17C-1.325,289.6,25.833,332.5,69.438,332.64h70.475c14.542-.3,24.438-4.013,37.89-12.212A13.229,13.229,0,0,0,190.7,330.8h37.5a13.222,13.222,0,0,0,13.064-11.349c10.56,12.949,31.376,19.694,44.145,6.807,24.376,17.775,50.444-.628,43.2-29.531a3.489,3.489,0,0,0,.276-1.365v-67.4a9.941,9.941,0,0,0-9.929-9.931H274.889a9.894,9.894,0,0,0-2.931.443V180.905a9.94,9.94,0,0,0-9.929-9.929H217.964a9.94,9.94,0,0,0-9.929,9.929v58.611H190.364a579.02,579.02,0,0,0-35.37-77.244,88.258,88.258,0,0,0-4.68-27.319c.368-2.851.5-5.937-1.109-8.431a11.694,11.694,0,0,0,0-19.04c16.8-18.964,30.653-58.732,31.5-61.2,4.527-16.017-13.694-19.6-32.45-17.8-1.693-12.959-3.589-18.208-4.958-20.315a3.576,3.576,0,0,0-2.322-1.127A109.875,109.875,0,0,0,99.067,12.1a68.376,68.376,0,0,1-22.739,3.346,62.555,62.555,0,0,0-26.309,5.144c-16.995,6.994-26.165,19-14.746,29.781,2.048,2.149,28.314,30.019,40.283,57.172-5.7,3.842-6.522,12.838-1.516,17.63-5.549,5.393-3.858,15.248,3.04,18.56C71.851,153.064,57.687,176.708,47.532,190.541Zm136.955,58.9a2.932,2.932,0,0,1,2.929-2.929h44.066a2.933,2.933,0,0,1,2.93,2.929v11.939H184.487Zm49.925,32.21H184.487V268.384h49.925Zm-49.925,7h49.925v13.273H184.487ZM228.2,323.8H190.7a6.218,6.218,0,0,1-6.211-6.211v-8.657h49.925v8.657A6.218,6.218,0,0,1,228.2,323.8Zm49.585-.3c-13.052,8.112-30.009-3.277-36.374-16.238V278.186C263.276,252.892,303.714,303.767,277.786,323.493ZM215.035,201h49.923v17.03H215.035Zm56.923,48.787h49.925v32.254c-12.237-17.492-33.971-23.555-47.078-10.587q-1.4-1.017-2.847-1.891Zm50.761,58.526c-1.261,17.824-18.892,23.064-33.147,12.313,5.139-9.694,4.151-21.806-.686-32,7.73-10.271,27.03,13.636,17.572,22.181-3.819,2.581-.055,8.313,3.824,5.863,17.415-13.052-9.042-48.59-25.016-34.35a45.483,45.483,0,0,0-5.156-6.294C297.756,260.714,325,286.482,322.719,308.311Zm-47.83-83.283h44.065a2.933,2.933,0,0,1,2.929,2.931v14.826H271.958V227.959A2.935,2.935,0,0,1,274.889,225.028Zm-56.925-47.052h44.065a2.932,2.932,0,0,1,2.929,2.929V194H215.035V180.905A2.932,2.932,0,0,1,217.964,177.976Zm-2.929,47.052h49.923v17.757H249.846a3.5,3.5,0,0,0,0,7h15.112v16.478c-8.2-2.828-16.789-2.333-23.546,2.338V249.445a9.941,9.941,0,0,0-9.93-9.929H215.035Zm-69.654-45.536c-4.992,15.158-15.684,26.165-19.513,41.7-2.329-13.241,1.2-28.931,10.6-46.913a112.373,112.373,0,0,0,10.52-23.589C148.328,159.069,148.694,169.552,145.381,179.492Zm.049,78.785c2.5,1.513,6.943,2.68,4.951,6.49-1.943,3.108-5.647.586-8.171-.254C143.241,262.362,144.351,260.238,145.43,258.277Zm-3.124-8.627a140.511,140.511,0,0,0-7.831,14.929c-1.019,2.425-3.844,2.942-6.032,1.794a3.91,3.91,0,0,1-2.159-5.069,51.922,51.922,0,0,1,9.85-16.442C139.3,241.569,144.675,245.723,142.306,249.65ZM82.358,138.005c-6.166-.195-6.171-9.14,0-9.336H130.4a47.654,47.654,0,0,1-.979,9.336ZM77.69,117a4.674,4.674,0,0,1,4.668-4.669h60.126a4.669,4.669,0,0,1,0,9.337H82.358A4.673,4.673,0,0,1,77.69,117Zm30.448-49.18c.277,1.956,4.143,8.963,4.264,24a3.5,3.5,0,0,0,7,0A75.258,75.258,0,0,0,116.63,71.38a88.041,88.041,0,0,0,25.048-2.737L130.3,105.332h-29.16c-2.4-9.054-8.272-26.93-19.977-40.77,6.909-.391,16.883-2.028,26.105-7.5ZM137.4,128.669h3.278a2.876,2.876,0,0,1,2.886,2.974c-1.114,19.553-13,38.861-13.114,39.053-18.248,36.006-13.79,56.466-2.252,72.755a57.374,57.374,0,0,0-5.523,8.777c-31.941-31.243,2.109-86.089,3.616-88.474C136.027,148.358,137.412,135.057,137.4,128.669Zm4.247-23.386c-.016.015-.026.034-.041.049h-3.983L150.3,64.487a17.128,17.128,0,0,0,1.214-9.921c5.273.092,12.92-.221,19.5-2.263C165.66,66.076,154.077,93.2,141.65,105.283Zm-2.017-86.027a84.445,84.445,0,0,1,1.616,9.521,83.357,83.357,0,0,1-11.128-.359A77.721,77.721,0,0,0,139.633,19.256ZM37.308,39.566c1.284-9.029,26.342-18.28,38.9-17.125,22.471.564,32.825-9.624,58.854-8.658-2.135,2.718-6.3,7.042-14.387,13.211a3.5,3.5,0,0,0-.973,4.413c.765,1.453,3.093,5.876,31.2,3.916,17.929-1.076,24.435,2.36,23.5,7.714C167.63,48.105,151.751,47.83,146,47.265a3.5,3.5,0,0,0-2.872,5.9c2.28,2.384,1.738,5.59,1.2,7.311-11.745,4.167-24.062,4.1-29.461,3.807l-1.121-13.82a3.5,3.5,0,0,0-5.674-2.45C95.968,57.7,79.937,57.828,74.855,57.592,74.14,54.385,76.93,49.9,90.773,43.754a3.513,3.513,0,0,0-1.14-6.707c-1.2-.082-28.695-1.866-51.075,6.629A5.719,5.719,0,0,1,37.308,39.566Zm6.472,9.679c10.959-3.651,23.11-4.892,32.078-5.256-8.139,5.651-10.6,13.907-5.5,19.444,13.608,12.165,20.616,31.5,23.527,41.9-.315.007-11.3-.012-11.644.006C72.028,81.771,51.994,58.312,43.78,49.245Zm40.625,95.76h5.238c-1.115,5.332-4.642,18.269-14.781,34.334a29.842,29.842,0,0,0-3.861,7.9c-2.223,6.256,3.048,13.122,9.517,13,7.231-.2,13.317-7.931,13-18.032-.243-4.614-7.024-4.4-7,.223.143,4.507-1.216,7.818-4.153,10.124a2.972,2.972,0,0,1-4.685-3.224,22.73,22.73,0,0,1,2.893-5.946c11.724-18.343,15.364-33.468,16.21-38.38h10.977a57.783,57.783,0,0,1-3.309,12.685,3.5,3.5,0,1,0,6.492,2.619,65.389,65.389,0,0,0,3.89-15.3h12.727a68.515,68.515,0,0,1-7.184,15.009c-14.875,22.586-31.454,72.7-.688,98.965-4.129,11.377,10.866,20.066,19.033,11.661,6.194,2.987,13.282,4.619,17.65-2.253a10.3,10.3,0,0,0-4.263-14.47c-1.1-.541-2.179-1.128-3.242-1.738,4.51-9.758-6.612-19.547-15.735-13.831q-.5-.686-.963-1.384c-3.827-24.052,17.887-39.306,21.654-62.111,8.327,15.968,20.13,40.2,29.433,65.589a9.931,9.931,0,0,0-5.769,9v62.616c-12.122,8.788-24.271,13.461-37.574,13.579H69.437A51.718,51.718,0,0,1,30,307.923c-34.361-41.68,8.834-91.2,31.828-125.763C72.006,166.712,81.389,150.341,84.405,145.005Z" style="fill:#3c3c4f"/>
  <path d="M263.131,280.6c-6.207-2.7-12.479-1.681-16.136,3.376a3.5,3.5,0,0,0,5.7,4.058c1.682-2.67,5.781-1.971,7.624-1.022,6.127,2.534,11.8,11.231,11.652,17.861.076,5.642-3.7,8.16-8.873,5.81a3.5,3.5,0,0,0-2.8,6.416c9.2,4.438,18.952-1.516,18.672-12.215C279.164,295.523,271.775,284.194,263.131,280.6Z" style="fill:#3c3c4f"/>
</svg>
