<?xml version="1.0" ?><svg id="icon" viewBox="0 0 340 340" xmlns="http://www.w3.org/2000/svg"><path d="M158.845,266.062s-2.314,15.1-15.908,20.643-14.853,13.091-14.35,22.658c0,0,6.893,8.559,30.258,8.559C158.845,317.922,164.431,285.2,158.845,266.062Z" style="fill:#fa883e"/><path d="M181.143,266.062s2.313,15.1,15.908,20.643S211.9,299.8,211.4,309.363c0,0-6.893,8.559-30.258,8.559C181.143,317.922,175.557,285.2,181.143,266.062Z" style="fill:#fa883e"/><path d="M181.143,295.523c0,14.144-23.081,13.753-22.3,0V221.075c7.68-1.1,15.1,2.741,22.3,11.052Z" style="fill:#ffc362"/><polygon points="158.845 221.075 181.143 232.127 181.143 195.319 158.845 195.319 158.845 221.075" style="fill:#fa883e"/><path d="M150.252,171.477h39.484a0,0,0,0,1,0,0V194.5a16.46,16.46,0,0,1-16.46,16.46h-6.565a16.46,16.46,0,0,1-16.46-16.46V171.477A0,0,0,0,1,150.252,171.477Z" style="fill:#fa883e"/><path d="M168.228,157.568H136.282a37.733,37.733,0,0,0-1.146,7.749,16.561,16.561,0,0,0,7.633,14.494c7.258,4.723,22.658,6.446,35.856,5.168C193.8,180.026,186.317,165.149,168.228,157.568Z" style="fill:#ffc362"/><path d="M203.706,157.568H144.973c-1.333,1.13-4.673,3.926-4.673,3.926a114.46,114.46,0,0,0,32.3,9.249c6.428.836,10.051,8.172,6.487,13.586q-.218.332-.462.645c7.576-.734,14.429-2.452,18.6-5.163a16.561,16.561,0,0,0,7.632-14.494A37.656,37.656,0,0,0,203.706,157.568Z" style="fill:#fa883e"/><rect height="33.567" rx="11.149" style="fill:#6d68b7" transform="translate(486.651 161.613) rotate(-177.867)" width="22.298" x="233.681" y="59.494"/><rect height="33.567" rx="11.149" style="fill:#9994d6" transform="translate(-2.773 3.594) rotate(-2.133)" width="22.298" x="84.009" y="59.494"/><path d="M240.908,27.2H99.08s-2.362,59.643,3.248,87.4c0,0,19.884,13.287,67.666,13.582,47.782-.3,67.666-13.582,67.666-13.582C243.27,86.844,240.908,27.2,240.908,27.2Z" style="fill:#ffc362"/><path d="M104.744,125.313s10.974,41.218,65.25,41.218,65.25-41.218,65.25-41.218Z" style="fill:#fa883e"/><rect height="33.567" rx="11.149" style="fill:#ff6a84" width="22.298" x="158.845" y="60.908"/><path d="M240.908,27.2H99.08s-.252,7.441-.395,18.593h105.5a15.293,15.293,0,0,1,15.285,15.648c-.207,9.183-.6,20.183-1.357,28.982a21.9,21.9,0,0,1-12.888,18.156c-10.508,4.69-27.235,10.474-46.377,10.829l10.636,8.765.029.01c48.131-.208,68.15-13.585,68.15-13.585C242.226,92.008,240.908,27.2,240.908,27.2Z" style="fill:#fa883e"/><path d="M204.054,117.21a234.323,234.323,0,0,1-34.06,2.458c-32.414,0-56.436-6.5-68.024-10.439a5.847,5.847,0,0,0-7.731,5.542h0a15.966,15.966,0,0,0,8.264,14.067c23.017,12.472,67.491,12.875,67.491,12.875a258.486,258.486,0,0,0,26.825-1.97C204.627,133.2,206.449,125.584,204.054,117.21Z" style="fill:#ffc362"/><path d="M207.8,33.016H102.809a10.57,10.57,0,0,1-10.57-10.571V9.99H211.046C217.8,15.675,216.626,27.2,207.8,33.016Z" style="fill:#ffc362"/><path d="M211.046,23.066s.283,5.984-3.245,9.95h29.377a10.571,10.571,0,0,0,10.571-10.571V9.99h-36.7Z" style="fill:#fa883e"/><path d="M237.484,128.838a15.965,15.965,0,0,0,8.265-14.067h0a5.847,5.847,0,0,0-7.731-5.542,194.644,194.644,0,0,1-33.965,7.978c-.124,5.474-1.217,15.853-7.234,22.535C210.459,138.027,226.441,134.822,237.484,128.838Z" style="fill:#fa883e"/><path d="M181.143,317.922v-22.4c0,8.931-22.3,10.495-22.3,0v22.4Z" style="fill:#fa883e"/><path d="M188.052,313.119a121.019,121.019,0,0,1-18.058,1.279c-22.974,0-36.462-5.543-42.937-9.272a8.507,8.507,0,0,0-9.734.876h0a8.55,8.55,0,0,0,.8,13.636c12.51,8.453,40.961,11.728,65.823,9.824C192.561,326.217,196.819,315.312,188.052,313.119Z" style="fill:#ffc362"/><path d="M183.945,329.461c15.722-1.2,30.009-4.478,37.92-9.823a8.55,8.55,0,0,0,.8-13.636h0a8.507,8.507,0,0,0-9.734-.876c-4.544,2.617-12.561,6.121-24.869,7.981l-.01.01S191.1,323.335,183.945,329.461Z" style="fill:#fa883e"/><path d="M158.845,81.755a3.4,3.4,0,0,0,.843-.443l20.157-14.469a11.147,11.147,0,0,0-21,5.214Z" style="fill:#fff"/><path d="M84.211,60.68a14.558,14.558,0,0,0-3.9,10.511l.419,11.263A14.665,14.665,0,0,0,96.457,96.507c.265,3.24.578,6.363.944,9.317a9.36,9.36,0,0,0-6.662,8.946c-.11,8.768,5.753,15.9,13.659,18.915a62,62,0,0,0,27.548,27.972c-1.983,10.689,4.284,20.667,14.805,23.864-.138,10.591-.778,18.539,8.594,25.367v54.865c-4.938,23.287-25.759,14.19-29.9,35.036-7.436-1.856-15.245,4.583-14.618,12.334-.436,27.149,118.688,27.216,118.343,0,.613-7.751-7.167-14.191-14.62-12.334-4.171-20.871-24.8-11.646-29.9-35.045V210.887c9.367-6.814,8.735-14.8,8.593-25.366,10.574-3.21,16.833-13.266,14.781-23.99a63.438,63.438,0,0,0,27.622-27.868c7.886-3.018,13.718-10.148,13.609-18.893a9.358,9.358,0,0,0-6.661-8.946c.365-2.952.678-6.076.942-9.316a14.666,14.666,0,0,0,15.73-14.055l.419-11.261A14.708,14.708,0,0,0,244.9,56.006c0-8.779-.139-16.449-.27-21.647a14.059,14.059,0,0,0,6.62-11.914V9.99a3.5,3.5,0,0,0-3.5-3.5H92.239a3.5,3.5,0,0,0-3.5,3.5V22.445a14.058,14.058,0,0,0,6.619,11.914c-.135,5.344-.274,12.993-.272,21.655A14.46,14.46,0,0,0,84.211,60.68Zm85.782-24.158c1.654.126,21.2,2.3,26.905,33.2a22.183,22.183,0,0,0,2.515,6.969,22.393,22.393,0,0,0-2.515,6.963c-8.093,41.619-42.766,42.642-52.812,4.585a3.5,3.5,0,1,0-6.787,1.713c3.233,12.811,8.793,20.667,14.422,25.5a211.513,211.513,0,0,1-40.062-6.908A47.04,47.04,0,0,0,120.8,89.281c15.594-3.437,20.885-11.955,22.288-19.556C148.776,38.942,167.966,36.675,169.993,36.522Zm67.879,26.046q-4.93-.109-9.3.2a40.587,40.587,0,0,1,9.306-13.045C237.908,53.717,237.913,58.048,237.872,62.568Zm-2.388,43.608a40.294,40.294,0,0,1-6.61-9.947,3.5,3.5,0,0,0-6.34,2.965,47.2,47.2,0,0,0,5.8,9.354,211.545,211.545,0,0,1-40.039,6.906c7.04-5.589,13.184-17.107,16.107-32.846,5.426,4.885,17.314,8.643,32.529,8.22C236.575,96.268,236.1,101.474,235.484,106.176ZM103.057,90.828a90.58,90.58,0,0,0,10.214-.388,40.109,40.109,0,0,1-8.771,15.709C103.882,101.451,103.41,96.256,103.057,90.828Zm-.388-7c-.22-4.73-.368-9.535-.459-14.253,14.08-.31,24.189,2.127,29.546,7.117C126.451,81.707,116.724,84.1,102.669,83.824Zm41.588,206.122a27.642,27.642,0,0,0,11.088-8.235v28.328c-10.833-1.326-18.406-3.959-23.247-6.241C132.576,298.083,135.009,293.714,144.257,289.946Zm76.152,18.732a5.078,5.078,0,0,1-.5,8.059c-19.124,12.925-80.7,12.925-99.823,0a5.109,5.109,0,0,1-2.271-3.986,5.043,5.043,0,0,1,7.5-4.593c20.164,12.889,69.282,12.852,89.369,0A5.024,5.024,0,0,1,220.409,308.678Zm-24.678-18.732c9.248,3.768,11.681,8.136,12.158,13.852-4.841,2.282-12.413,4.915-23.246,6.241V281.711A27.649,27.649,0,0,0,195.731,289.946Zm-18.088,20.725a130.563,130.563,0,0,1-15.3,0v-96.7a50.235,50.235,0,0,0,15.3,0ZM186.236,194.5a12.975,12.975,0,0,1-12.96,12.96h-6.565a12.975,12.975,0,0,1-12.96-12.96v-7.124a89.95,89.95,0,0,0,32.485,0Zm15.117-29.056c.953,21.112-45.218,18.479-56.675,11.431a12.963,12.963,0,0,1-5.983-12.2c16.457,7.042,46.176,7.049,62.6-.108C201.313,164.863,201.343,165.16,201.353,165.446Zm-31.359-2.415c-31.088,0-47.2-13.889-55.233-25.471,41.207,10.3,69.208,10.325,110.486-.006C217.153,149.27,201.039,163.031,169.994,163.031Zm65.824-37.27c-37.521,16.619-94.046,16.646-131.648,0a12.442,12.442,0,0,1-6.431-10.993,2.361,2.361,0,0,1,3.1-2.228c11.651,3.968,36.231,10.634,69.177,10.626,32.972,0,57.461-6.658,69.125-10.626a2.36,2.36,0,0,1,3.1,2.228A12.432,12.432,0,0,1,235.818,125.761ZM245.325,63a7.682,7.682,0,0,1,7.357,7.928l-.419,11.26a7.6,7.6,0,0,1-8.243,7.325c.523-8.737.764-17.933.846-26.5C245.019,63.016,245.17,63,245.325,63Zm-7.56-22.235a47.569,47.569,0,0,0-17.1,22.992A44.484,44.484,0,0,0,211.61,66.4a3.51,3.51,0,0,0,1.361,6.726,65.545,65.545,0,0,1,24.8-3.555c-.09,4.714-.237,9.523-.457,14.258-20.306.4-31.576-4.766-33.535-15.371-3.136-16.975-10.084-26.537-16.862-31.939,1.319-.027,49.329.052,50.759-.025C237.708,37.8,237.737,39.233,237.765,40.769ZM95.739,13.49h148.51v8.955a7.078,7.078,0,0,1-7.071,7.07H102.809a7.078,7.078,0,0,1-7.07-7.07Zm7.07,23.025h50.259c-7.43,5.426-14.44,17.448-17.465,34.228-6.878-5.767-18.105-8.513-33.49-8.169-.04-4.516-.036-8.86,0-12.871a40.4,40.4,0,0,1,6.3,7.526,3.5,3.5,0,1,0,5.871-3.812,47.286,47.286,0,0,0-12.059-12.646c.027-1.527.057-2.96.087-4.281C102.477,36.5,102.641,36.515,102.809,36.515Zm-7.69,26.492c.081,8.588.323,17.778.847,26.51a7.6,7.6,0,0,1-8.242-7.324L87.305,70.93A7.673,7.673,0,0,1,95.119,63.007Z" style="fill:#3c3c4f"/><path d="M169.994,97.974a14.665,14.665,0,0,0,14.649-14.648V72.056c-.8-19.429-28.5-19.43-29.3,0V83.326A14.665,14.665,0,0,0,169.994,97.974Zm-7.649-25.918c.383-10.13,14.914-10.132,15.3,0V83.326c-.383,10.129-14.914,10.133-15.3,0Z" style="fill:#3c3c4f"/></svg>