<?xml version="1.0" ?><svg id="icon" viewBox="0 0 340 340" xmlns="http://www.w3.org/2000/svg"><rect height="202.433" style="fill:#ffe9d3" width="264.091" x="37.954" y="86.133"/><rect height="202.433" style="fill:#dbaf92" width="42.819" x="37.954" y="86.133"/><rect height="202.433" style="fill:#dbaf92" width="65.393" x="236.653" y="86.133"/><rect height="163.316" style="fill:#6d68b7" width="264.091" x="37.954" y="105.691"/><rect height="163.316" style="fill:#f7a88c" width="264.091" x="37.954" y="105.691"/><rect height="163.316" style="fill:#d1775f" width="42.819" x="37.954" y="105.691"/><rect height="163.316" style="fill:#de8267" width="65.393" x="236.653" y="105.691"/><path d="M200.457,105.691l-.856,6.939a13.852,13.852,0,0,1-8.939,11.267c-6.375,2.381-14.913,7.347-18.606,17.4-2.5,6.811,1.223,11.89,6.594,15.534a12.905,12.905,0,0,1,5.351,8.4l2.426,13.252s.572,8.687,12.386,11.467c5.25,1.236,12.421,1.373,18.769,1.145v4.875a12.821,12.821,0,0,1-3.757,9.082c-5.278,5.267-13.849,16.609-10.147,32.158a27.386,27.386,0,0,0,2.2,5.929c8.814,15.307,28.308,25.873,28.308,25.873h15.55c10.6-12.27,7.829-18.053-2.14-26.912a16.788,16.788,0,0,1-5.507-15.743,12.805,12.805,0,0,1,1.749-4.564l4.895-7.342a14.773,14.773,0,0,1,9.988-6.4l43.322-5.839V105.691Z" style="fill:#d1775f"/><path d="M46.306,50.113V69.345a8.541,8.541,0,0,1-7.8,8.62A8.353,8.353,0,0,1,29.6,69.631V50.284a7.031,7.031,0,0,0-2.278-5.276,15.938,15.938,0,0,1-5.347-12.974,16.01,16.01,0,0,1,31.987,1.025A15.932,15.932,0,0,1,48.716,44.89,7.083,7.083,0,0,0,46.306,50.113Z" style="fill:#f7a88c"/><path d="M65.909,83.982c0-12.008-12.516-21.743-27.955-21.743S10,71.974,10,83.982V266.824H65.909Z" style="fill:#ffe9d3"/><ellipse cx="37.954" cy="266.824" rx="27.954" ry="21.742" style="fill:#874f4f"/><path d="M46.306,289.76v-14.3a8.541,8.541,0,0,0-7.8-8.619,8.353,8.353,0,0,0-8.908,8.333V289.59a7.027,7.027,0,0,1-2.278,5.275,15.941,15.941,0,0,0-5.347,12.975,16.01,16.01,0,0,0,31.987-1.026,15.928,15.928,0,0,0-5.248-11.83A7.085,7.085,0,0,1,46.306,289.76Z" style="fill:#f7a88c"/><path d="M236.653,105.691V269.008h13.086c10.6-12.27,7.829-18.053-2.14-26.912a16.787,16.787,0,0,1-5.507-15.742,12.822,12.822,0,0,1,1.749-4.565l4.895-7.342a14.773,14.773,0,0,1,9.988-6.4l43.322-5.839V105.691Z" style="fill:#ab5f51"/><path d="M293.694,50.113V69.345a8.541,8.541,0,0,0,7.8,8.62,8.353,8.353,0,0,0,8.908-8.334V50.284a7.031,7.031,0,0,1,2.278-5.276,15.938,15.938,0,0,0,5.347-12.974,16.01,16.01,0,0,0-31.987,1.025,15.932,15.932,0,0,0,5.248,11.831A7.083,7.083,0,0,1,293.694,50.113Z" style="fill:#f7a88c"/><path d="M274.091,83.982c0-12.008,12.516-21.743,27.955-21.743S330,71.974,330,83.982V266.824H274.091Z" style="fill:#ffe9d3"/><ellipse cx="302.046" cy="266.824" rx="27.954" ry="21.742" style="fill:#874f4f"/><path d="M293.694,289.76v-14.3a8.541,8.541,0,0,1,7.8-8.619,8.353,8.353,0,0,1,8.908,8.333V289.59a7.027,7.027,0,0,0,2.278,5.275,15.941,15.941,0,0,1,5.347,12.975,16.01,16.01,0,0,1-31.987-1.026,15.928,15.928,0,0,1,5.248-11.83A7.085,7.085,0,0,0,293.694,289.76Z" style="fill:#f7a88c"/><rect height="22.27" rx="9.047" style="fill:#d1775f" width="18.094" x="90.497" y="217.203"/><rect height="22.27" rx="9.047" style="fill:#d1775f" width="18.094" x="124.132" y="205.331"/><rect height="22.27" rx="9.047" style="fill:#d1775f" width="18.094" x="158.358" y="212.622"/><rect height="22.27" rx="9.047" style="fill:#d1775f" width="18.094" x="138.13" y="118.152"/><path d="M313.9,60.606V50.284a3.53,3.53,0,0,1,1.1-2.659,19.4,19.4,0,0,0,6.517-15.81c-2.56-24.948-38.148-23.808-38.981,1.245a19.521,19.521,0,0,0,6.395,14.422,3.576,3.576,0,0,1,1.262,2.632V60.606c-10.992,3.6-18.9,12.054-19.555,22.027H69.362C68.705,72.66,60.8,64.209,49.807,60.606V50.114a3.58,3.58,0,0,1,1.262-2.633,19.518,19.518,0,0,0,6.395-14.422C56.631,8.01,21.045,6.864,18.483,31.815A19.4,19.4,0,0,0,25,47.625a3.53,3.53,0,0,1,1.1,2.659V60.606C14.617,64.37,6.5,73.427,6.5,83.982V266.824c0,10.351,7.773,19.528,19.545,23.369A3.393,3.393,0,0,1,25,292.25a19.393,19.393,0,0,0-6.517,15.808,19.7,19.7,0,0,0,19.486,18.266c18.051-.136,26.245-22.244,12.8-34.258H289.231c-13.446,12.016-5.249,34.124,12.8,34.258a19.7,19.7,0,0,0,19.486-18.266A19.4,19.4,0,0,0,315,292.25a3.4,3.4,0,0,1-1.047-2.06c11.766-3.842,19.546-13.031,19.546-23.366V83.982C333.5,73.427,325.383,64.37,313.9,60.606ZM293.636,42.3A12.555,12.555,0,0,1,293.414,24c12.439-11.176,29.195,6.88,16.937,18.387a10.523,10.523,0,0,0-3.454,7.893v8.757a39.387,39.387,0,0,0-9.7,0V50.114A10.628,10.628,0,0,0,293.636,42.3ZM256.613,265.507c4.389-7.786,4.089-17.4-3.466-23.147-6.4-4.481-11.178-11.013-6.393-18.629,8.88-14.051,8.181-11.377,23.838-13.75v55.526ZM176.686,159.728a9.451,9.451,0,0,1,3.873,6.129l2.4,13.128c1.969,12.017,14.119,16.188,31.121,15.689a9.877,9.877,0,0,1-2.731,7.9c-19.675,19.949-15.092,46.186,11.584,62.937H69.408V109.191H196.5c-.256,5.051-1.957,9.527-7.062,11.428C176.979,124.331,155.581,145.191,176.686,159.728Zm30.4,76.667c-3.294-13.831,4.358-24.025,9.212-28.87,4.707-4.518,5.033-10.3,4.786-16.435a3.524,3.524,0,0,0-3.626-3.5c-11.7.547-26.647-.332-27.587-9.743L187.443,164.6a16.477,16.477,0,0,0-6.828-10.662c-6.8-4.61-6.264-8.732-5.273-11.432,3.219-8.763,10.773-13.172,16.545-15.328,8.011-3.053,11.236-9.849,11.665-17.984h67.04v93.726c-9.156,1.486-19.035.695-24.768,9.589l-4.894,7.342a18.113,18.113,0,0,0,1.843,22.609,49.6,49.6,0,0,0,6.161,5.493c6.147,4.6,3.208,12.911-.685,17.557H236.758C226.739,260.358,210.331,250.035,207.084,236.4Zm63.508-134.2H69.408V89.633H270.592ZM68.6,272.507H271.4a24.477,24.477,0,0,0,8.878,12.559H59.694A24.6,24.6,0,0,0,68.6,272.507ZM29.648,42.392c-8.363-7.344-3.361-21.265,7.691-21.827,11.518-.727,17.7,14.08,9.025,21.733a10.632,10.632,0,0,0-3.557,7.816v8.927a39.387,39.387,0,0,0-9.7,0V50.284A10.517,10.517,0,0,0,29.648,42.392ZM13.5,83.982c0-10.059,10.97-18.242,24.454-18.242s24.454,8.183,24.454,18.242v166.99c-12.012-12.422-36.9-12.417-48.908,0Zm0,182.842c1.277-24.187,47.643-24.17,48.908,0,0,6.65-4.937,12.749-12.6,15.941v-7.3c-.528-16-23.037-16.069-23.7-.286v7.585C18.432,279.572,13.5,273.5,13.5,266.824ZM46.586,315.87C34.133,327.036,17.4,308.992,29.65,297.482a10.529,10.529,0,0,0,3.453-7.893V275.175a4.8,4.8,0,0,1,1.535-3.541c3.095-2.982,8.228-.5,8.169,3.828v14.3a10.634,10.634,0,0,0,3.557,7.815A12.555,12.555,0,0,1,46.586,315.87Zm267.944-8.249c-1.641,15.991-24.464,15.251-24.994-.807a12.508,12.508,0,0,1,4.1-9.239,10.634,10.634,0,0,0,3.557-7.815v-14.3c.161-6.639,9.417-6.844,9.705-.286v14.414C306.847,297.867,315.255,298.325,314.53,307.621Zm-.633-24.859v-7.587a11.854,11.854,0,1,0-23.7.286v7.3c-22.8-10.027-12.015-34.289,11.853-34.177C325.916,248.476,336.7,272.716,313.9,282.762Zm12.6-31.79c-12.012-12.422-36.9-12.417-48.908,0V83.982c0-10.059,10.97-18.242,24.454-18.242S326.5,73.923,326.5,83.982Z" style="fill:#3c3c4f"/><path d="M99.544,213.7A12.562,12.562,0,0,0,87,226.25v4.175a12.563,12.563,0,0,0,9.047,12.041v7.49a3.5,3.5,0,0,0,7,0v-7.49a12.563,12.563,0,0,0,9.047-12.041V226.25A12.562,12.562,0,0,0,99.544,213.7Zm5.547,16.722c-.233,7.33-10.862,7.33-11.094,0V226.25a5.547,5.547,0,0,1,11.094,0Z" style="fill:#3c3c4f"/><path d="M133.18,201.831a12.561,12.561,0,0,0-12.548,12.546v4.176a12.562,12.562,0,0,0,9.048,12.041v7.489a3.5,3.5,0,1,0,7,0v-7.49a12.563,12.563,0,0,0,9.047-12.04v-4.176A12.561,12.561,0,0,0,133.18,201.831Zm5.547,16.722c-.233,7.33-10.863,7.33-11.095,0v-4.176a5.548,5.548,0,0,1,11.1,0Z" style="fill:#3c3c4f"/><path d="M154.857,221.669v4.175a12.564,12.564,0,0,0,9.047,12.041v7.973a3.5,3.5,0,0,0,7,0v-7.972a12.563,12.563,0,0,0,9.048-12.042v-4.175C179.264,205.024,155.544,205.027,154.857,221.669Zm18.1,0v4.175c-.191,7.315-10.9,7.315-11.095,0v-4.175C162.09,214.338,172.72,214.339,172.952,221.669Z" style="fill:#3c3c4f"/><path d="M143.677,143.282v4.967a3.5,3.5,0,0,0,7,0v-4.967a12.563,12.563,0,0,0,9.048-12.04v-4.176c-.689-16.644-24.407-16.642-25.095,0v4.176A12.562,12.562,0,0,0,143.677,143.282Zm-2.047-16.216c.232-7.33,10.863-7.329,11.1,0v4.176a5.548,5.548,0,0,1-11.095,0Z" style="fill:#3c3c4f"/><path d="M123.123,191.955l-14.91-18.789a3.523,3.523,0,0,0-5.483,0L88.9,190.6a3.5,3.5,0,0,0,5.482,4.352l11.1-13.981,12.169,15.334a3.5,3.5,0,1,0,5.482-4.351Z" style="fill:#3c3c4f"/><path d="M157.194,183.414a3.5,3.5,0,0,0,.566-4.917l-18.043-22.738a3.523,3.523,0,0,0-5.483,0l-4.421,5.572-19.792-24.939a3.523,3.523,0,0,0-5.483,0L90.866,153.62a3.5,3.5,0,0,0,5.483,4.351l10.93-13.773,18.066,22.763-4.135,5.21a3.5,3.5,0,0,0,5.482,4.352l10.284-12.957,15.3,19.282A3.5,3.5,0,0,0,157.194,183.414Z" style="fill:#3c3c4f"/><path d="M237.572,136.5c-4.2.061-5.921,1.73-7.817,3.2a3.5,3.5,0,0,0,4.279,5.539c1.968-1.931,4.406-2.5,6.517-.44,3.752,3.729,10.964,3.723,14.71,0,1.116-.893,1.626-1.3,2.983-1.3,1.646-.092,2.567,1.041,3.868,1.989a3.5,3.5,0,0,0,4.895-.735c2.908-3.994-4.062-8.355-8.763-8.254a10.727,10.727,0,0,0-7.356,2.834c-1.117.894-1.626,1.3-2.984,1.3s-1.864-.407-2.978-1.3A10.719,10.719,0,0,0,237.572,136.5Z" style="fill:#3c3c4f"/><path d="M212.747,130.785c1.967-1.931,4.4-2.5,6.514-.439a11,11,0,0,0,14.71,0c1.116-.893,1.626-1.3,2.983-1.3,1.646-.092,2.568,1.041,3.869,1.99,4.377,2.78,8-3.546,3.486-6.156a11,11,0,0,0-14.711,0c-1.117.893-1.626,1.3-2.984,1.3s-1.864-.407-2.978-1.3a10.719,10.719,0,0,0-7.354-2.835c-4.2.061-5.924,1.731-7.818,3.2A3.5,3.5,0,0,0,212.747,130.785Z" style="fill:#3c3c4f"/><path d="M250.9,183.053c2.384-2.272,4.7-1.3,6.851.688,4.376,2.817,7.973-3.6,3.49-6.153-3.756-3.73-10.965-3.724-14.714,0-1.116.893-1.626,1.3-2.983,1.3s-1.864-.407-2.98-1.3a11,11,0,0,0-14.707,0,3.546,3.546,0,1,0,4.373,5.465,4.041,4.041,0,0,1,5.961,0A11,11,0,0,0,250.9,183.053Z" style="fill:#3c3c4f"/><path d="M232.6,167.3c1.645-.092,2.566,1.041,3.868,1.989a3.5,3.5,0,0,0,4.16-5.629c-4.119-4.1-11.052-4.6-15.384-.526-1.117.893-1.627,1.3-2.984,1.3s-1.864-.407-2.98-1.3a11,11,0,0,0-14.706,0c-4.222,2.714-.315,8.756,3.818,5.9,1.211-.937,2.008-1.805,3.536-1.739,1.355,0,1.864.408,2.979,1.3a11.057,11.057,0,0,0,14.708,0C230.73,167.707,231.24,167.3,232.6,167.3Z" style="fill:#3c3c4f"/></svg>