<?xml version="1.0" ?><svg viewBox="0 0 500 500" xmlns="http://www.w3.org/2000/svg"><g data-name="Layer 4" id="Layer_4"><path d="M297.457,328.435c-.071-2.083-.525-4.641-2.507-5.284a32.754,32.754,0,0,1-12.117,14.907c-9.589,6.4-21.764,7.255-33.292,7.163-9.438-.075-19.034-.682-27.894-3.933s-17-9.485-20.663-18.18l-3.147,4.014a167.715,167.715,0,0,0,.928,21.093,24.428,24.428,0,0,0,1.841,7.956,17.792,17.792,0,0,0,5.637,6.462c8.1,5.994,18.733,7.014,28.788,7.64,18,1.122,36.621,1.57,53.436-4.951,2.191-.85,4.447-1.9,5.791-3.829a12.614,12.614,0,0,0,1.735-5.56A158.245,158.245,0,0,0,297.457,328.435Z" style="fill:#80a1d6"/><path d="M294.95,323.151a32.754,32.754,0,0,1-12.117,14.907c-9.589,6.4-21.764,7.255-33.292,7.163-7.6-.06-15.31-.469-22.651-2.324q.666,6.021,1.333,12.044a6.48,6.48,0,0,1-3.262,7.71,33.208,33.208,0,0,0-6.2,5.543,93.912,93.912,0,0,0,16.268,2.079c18,1.122,36.621,1.57,53.436-4.951,2.191-.85,4.447-1.9,5.791-3.829a12.614,12.614,0,0,0,1.735-5.56,158.245,158.245,0,0,0,1.464-27.5C297.386,326.352,296.932,323.794,294.95,323.151Z" style="fill:#4866a8"/><path d="M299.921,294a143.2,143.2,0,0,1-10.615,12.885,44.805,44.805,0,0,1-6.878,6.315c-5.8,4.088-12.96,5.679-19.965,6.8-10.384,1.665-21.262,2.465-31.214-.935-13.72-4.688-24.006-17.23-27.707-31.249l-4.454,7.468c-4.322,6.235-4.172,14.791-1.2,21.771s8.4,12.625,14.152,17.567a46.911,46.911,0,0,0,12.426,8.2A51.7,51.7,0,0,0,237,345.782a93.159,93.159,0,0,0,20.587,1.071c11.323-.93,22.139-5.206,32.128-10.619,3.7-2.007,7.531-4.408,9.257-8.249a19.831,19.831,0,0,0,1.313-7.1A198.28,198.28,0,0,0,299.921,294Z" style="fill:#b0e9ff"/><path d="M298.97,327.985a19.831,19.831,0,0,0,1.313-7.1A198.28,198.28,0,0,0,299.921,294a143.2,143.2,0,0,1-10.615,12.885,44.805,44.805,0,0,1-6.878,6.315c-5.8,4.088-12.96,5.679-19.965,6.8-7.628,1.223-15.523,1.973-23.122.94a46.877,46.877,0,0,1-23.269,8.98,73.276,73.276,0,0,1-8.942.164c1.575,1.583,3.228,3.092,4.913,4.538a46.911,46.911,0,0,0,12.426,8.2A51.7,51.7,0,0,0,237,345.782a93.159,93.159,0,0,0,20.587,1.071c11.323-.93,22.139-5.206,32.128-10.619C293.415,334.227,297.244,331.826,298.97,327.985Z" style="fill:#6fa1d8"/><path d="M304.467,366.868l-1.647-14.616c-8.044,9.047-19.521,14.553-31.359,17.089s-24.1,2.3-36.162,1.32c-9.251-.753-18.56-1.96-27.281-5.135s-16.893-8.474-22.169-16.11l-5.6,11.463c6.355,17.618,24.527,28.67,42.884,32.385a150.452,150.452,0,0,0,56.011.45C303.685,389.325,305.176,373.165,304.467,366.868Z" style="fill:#ff9aa7"/><path d="M302.82,352.252c-8.044,9.047-19.521,14.553-31.359,17.089a88.2,88.2,0,0,1-10.778,1.587c.79,8.2-.519,17.25-6.586,22.768a16.76,16.76,0,0,1-3.451,2.414,153.8,153.8,0,0,0,28.5-2.4c24.54-4.389,26.031-20.549,25.322-26.846Z" style="fill:#dd5764"/><path d="M229,394.312a29.05,29.05,0,0,1-10.5-14.454,39.4,39.4,0,0,1-1.975-11.864,71.761,71.761,0,0,1-8.5-2.468c-8.722-3.176-16.893-8.474-22.169-16.11l-5.6,11.463c6.355,17.618,24.527,28.67,42.884,32.385C225.08,393.658,227.037,394,229,394.312Z" style="fill:#dd5764"/><path d="M439.588,203.356c-5.333-28.592-10.689-57.277-19.657-84.944-6.3-19.451-23.626-56.181-66.1-74.581C312.607,25.977,269.639,4.689,225.207,11.288c-17.725,2.632-34.58,9.409-50.788,17.018A436.617,436.617,0,0,0,127.2,54.124c-7.832,4.935-15.536,10.252-21.647,17.192-7.669,8.708-12.453,19.532-16.8,30.291a590.3,590.3,0,0,0-35.6,128.264L58,232.611c6.886,16.617,29.328,18.646,44.08,28.937,12.731,8.881,19.529,24.195,22.607,39.409s3.035,30.887,5.33,46.239c2.43,16.252,7.662,32.421,17.671,45.454s25.257,22.609,41.677,23.272c3.255.132,6.67-.123,9.461-1.8,6.1-3.675,6.7-12.136,6.592-19.26l-1.562-105.332a50.158,50.158,0,0,0,89.822,9.769q.228,53.678,2.894,107.307a8.08,8.08,0,0,0,8.007,7.645c14.259.184,28.505-5.949,39.054-15.707,12.441-11.509,20.061-27.567,23.539-44.154,3.351-15.982,3.091-32.5,5.573-48.643s8.3-32.717,20.943-43.056c15.18-12.419,39.6-15.875,46.149-34.364C442.648,220.381,441.133,211.639,439.588,203.356Z" style="fill:#ffda76"/><path d="M294.535,242.358a2.76,2.76,0,0,0-1.834.065,105.571,105.571,0,0,0-63.056,48.786c-3.086,5.387-5.705,11.073-9.4,16.064-.718.971-1.486,1.916-2.3,2.821A50.61,50.61,0,0,0,245.7,322.61c16.758,1.823,34.141-5.625,44.691-18.707a89.791,89.791,0,0,0,4.524-27.949c0-10.061-1.684-20.259.4-30.1C295.586,244.582,295.72,242.888,294.535,242.358Z" style="fill:#f48a4e"/><path d="M296.984,106.3c-19.247-10.664-39.862-19.656-61.721-22.175S190.037,86.19,173.071,100.2c-6.956,5.745-12.65,12.876-17.7,20.353-7.46,11.048-13.706,23.22-15.826,36.381-5.338,33.143,21.389,67.669,10.54,99.438-16.566,48.51-5.747,72.775-1.116,99.792,3.085,18,8.047,36.762,21.045,49.588a96.851,96.851,0,0,0,11.226,9.091,46.627,46.627,0,0,0,8.123,1.077c3.255.132,6.67-.123,9.461-1.8,6.1-3.675,6.7-12.136,6.592-19.26l-1.562-105.332c-7.524-99.944,51.669-83.834,72.372-119.292,9.126-15.63,20.745-30.921,22.236-48.959Z" style="fill:#f48a4e"/><path d="M439.836,228.324c2.812-7.943,1.3-16.685-.248-24.968-5.333-28.592-10.689-57.277-19.657-84.944-6.3-19.451-23.626-56.181-66.1-74.581-39.5-17.11-80.609-37.357-123.072-33.208C270.52,13.116,313.922,43.3,339.728,62.829c34.8,26.342,55.764,70.017,54.552,113.646s-24.571,86.072-60.78,110.441c-9.643,6.49-20.164,11.8-28.8,19.58a69.878,69.878,0,0,0-10.847,12.448q.552,43.849,2.72,87.659a8.082,8.082,0,0,0,8.007,7.646c14.259.184,28.505-5.95,39.054-15.708,12.441-11.509,20.061-27.567,23.539-44.154,3.351-15.982,3.091-32.5,5.573-48.643s8.3-32.717,20.943-43.056C408.867,250.269,433.292,246.813,439.836,228.324Z" style="fill:#f48a4e"/><path d="M342.417,159.951c-3.074-6.366-11-10.681-17.5-7.906-3.128,1.334-7.494,3.724-9.141.749a5,5,0,0,1-.4-2.692c.35-6.826-2.216-13.781-.118-20.287C328.665,88.24,230.364,88.3,192.709,104.239a26.035,26.035,0,0,0-6.626,3.66c-6.252,5.191-6.8,14.571-5.595,22.608s3.629,16.281,1.5,24.125l-8.333-2.4-4.863,1.179c-9.278,4.209-17.956,13.675-15.305,23.512,1.275,4.728,4.9,8.405,7.316,12.664,3.458,6.093,4.378,13.253,6.58,19.9s6.415,13.419,13.176,15.255c2.835.77,5.864.589,8.693,1.383,9.543,2.681,12.741,14.481,19.89,21.348,3.237,3.109,7.323,5.2,10.687,8.171a29.46,29.46,0,0,1,6.532,8.45l31.074,15,12.892-4.3c1.852-7.1,4.827-13.683,9.99-18.849,6.875-6.88,16.965-10.445,22.278-18.592,1.965-3.014,3.181-6.543,5.632-9.177,4.587-4.932,12.325-5.574,17.407-9.993s6.483-11.593,8.712-17.955c2.338-6.672,5.864-12.886,8.092-19.6S345.491,166.318,342.417,159.951Z" style="fill:#ffda76"/><path d="M342.417,159.951c-3.074-6.366-11-10.681-17.5-7.906-3.128,1.334-7.494,3.724-9.141.749a5,5,0,0,1-.4-2.692c.35-6.826-2.216-13.781-.118-20.287,9.5-29.442-37.031-38-78.369-34.83a12.353,12.353,0,0,1-1.178,10.348c-3.549,5.435-10.09,7.95-16.2,10.138l-25.885,9.263c-3.61,1.293-7.356,2.67-10.019,5.428a10.335,10.335,0,0,0-2.459,4.272c.394,2.2.809,4.414,1.129,6.62,3.687,4.494,11.184,2,16.829-.091,21.667-8.022,45.714-1.711,67.928,4.642,4.2,1.2,9.118,3.161,9.888,7.457-7.915-1.206-15.984,4.851-17.838,12.639s2.081,16.362,8.745,20.8c4.913,3.271,11.088,4.567,15.415,8.58a15.835,15.835,0,0,1-11.03,27.443,14.761,14.761,0,0,1-15.393,8.985,13.976,13.976,0,0,1-2.075,14.027c4.206,0,6.408,5.9,4.214,9.485s-6.905,4.835-11.1,4.53c9.935,6.07,9.372,11.268,3.557,16.029l4,2.319,15.486-5.145c1.879-6.313,4.752-12.141,9.416-16.808,6.875-6.88,16.965-10.445,22.278-18.592,1.965-3.014,3.181-6.543,5.632-9.177,4.587-4.932,12.325-5.574,17.407-9.993s6.483-11.593,8.712-17.955c2.338-6.672,5.864-12.886,8.092-19.6S345.491,166.318,342.417,159.951Z" style="fill:#f48a4e"/><path d="M193.993,169.5s4.52-11.843,22.937-14.211,24.339,12.79,24.339,12.79L226.761,178.74s-13.569,2.412-25.11-5.426Z" style="fill:#fff"/><path d="M257.592,167.065A21.136,21.136,0,0,1,280.751,156c16.7,2.953,25.242,13.615,25.242,13.615s-15.171,8.454-26.619,9.476C279.374,179.09,264.81,180.1,257.592,167.065Z" style="fill:#fff"/><path d="M216.013,97.674a115.622,115.622,0,0,0-23.3,6.565,26.035,26.035,0,0,0-6.626,3.66c-3.845,3.193-5.526,7.973-5.975,13.049a30.3,30.3,0,0,0,35.905-23.274Z" style="fill:#fff"/><path d="M170.934,152.889l-2.137.518c-9.278,4.209-17.956,13.675-15.305,23.512,1.275,4.728,4.9,8.405,7.316,12.664a36.69,36.69,0,0,1,3.006,7.177C182.444,179.136,176.8,162.228,170.934,152.889Z" style="fill:#fff"/><path d="M247.73,195.631c1.929-5.946-.4-12.314-2.07-18.338a86.7,86.7,0,0,1-2.676-14.142l-1.092,2.3a23.1,23.1,0,0,0-.86,7.814c.16,2.582.749,5.217.087,7.717a16.641,16.641,0,0,1-2.181,4.39q-2.206,3.559-4.24,7.222a22.407,22.407,0,0,0-2.542,5.945,11.8,11.8,0,0,0,2.2,9.738,11.189,11.189,0,0,0,9.018,4.195c2.1-.079,4.471-1.11,4.914-3.164.509-2.359-1.757-4.391-2.218-6.76S246.988,197.918,247.73,195.631Z" style="fill:#fff"/><path d="M148.158,63.165c15.994-14.8,39.52-22.586,49.027-42.2.435-.9.831-1.806,1.2-2.727-8.156,2.913-16.138,6.389-23.968,10.065A436.617,436.617,0,0,0,127.2,54.124c-7.832,4.935-15.536,10.252-21.647,17.192-7.669,8.708-12.453,19.532-16.8,30.291a590.36,590.36,0,0,0-33.5,115.944A49.886,49.886,0,0,0,88.5,203.44c13.447-13.107,19.664-32.125,21.531-50.81,1.093-10.939.877-22.081,3.547-32.746,2.868-11.456,8.935-21.826,15.245-31.808C134.459,79.165,140.422,70.326,148.158,63.165Z" style="fill:#fff"/><path d="M267.229,295.476a127.189,127.189,0,0,1,3.1-20.682l-12.892,4.3-31.074-15c4.646,8.8,5.656,19.855,6.264,30.081l2.742,46.063c.426,7.163,1.646,15.608,8.038,18.871,6.482,3.309,14.713-1.275,18.093-7.721s3.3-14.07,3.443-21.347C265.182,318.494,266.206,306.98,267.229,295.476Z" style="fill:#80a1d6"/><path d="M270.332,274.794l-12.892,4.3-5.682-2.743a35.1,35.1,0,0,0-6.271,7.051,2.292,2.292,0,0,0-.542,1.909,2.492,2.492,0,0,0,1.324,1.189,20.554,20.554,0,0,1,7.387,6.877,2.9,2.9,0,0,1,.628,2.208,3.11,3.11,0,0,1-1.469,1.6l-8.455,5.623c2.215,1.391,4.5,2.846,5.946,5.024s1.833,5.293.186,7.324-4.75,2.4-6.461,4.39l6.373,7.433c.815.95,1.687,2.122,1.366,3.333a3.92,3.92,0,0,1-1.461,1.843c-3.689,3.081-7.489,6.225-12.035,7.785a16.6,16.6,0,0,1-2.875.7c.449,7.074,1.738,15.266,8.011,18.468,6.482,3.309,14.713-1.275,18.093-7.721s3.3-14.07,3.443-21.347c.236-11.547,1.26-23.061,2.283-34.565A127.189,127.189,0,0,1,270.332,274.794Z" style="fill:#4866a8"/><path d="M295.778,412.279l-2.213-21.329a122.325,122.325,0,0,1-88.662-3.764l-1.028,1.136a67.823,67.823,0,0,1-3.423,28.125c-.7,2.041,53.4,8.558,92.021-.425,1.09-.254,2.38-.3,2.994-1.24A3.81,3.81,0,0,0,295.778,412.279Z" style="fill:#80a1d6"/><path d="M293.565,390.95a121.537,121.537,0,0,1-48.83,6.188,12.122,12.122,0,0,1-3.686,9.131c-5.4,4.862-14.334,2.96-20.37,7a14.866,14.866,0,0,0-4.969,6c18.73,1.85,51.15,2.711,76.763-3.247,1.09-.254,2.38-.3,2.994-1.24a3.81,3.81,0,0,0,.311-2.5Z" style="fill:#4866a8"/><path d="M103.89,321.04l21.2-1.561s-8.309,112.466,127.166,102.806c0,0,110.76,22.248,125.521-102.813,0,0,8.389-2.728,19.725,1.207,0,0,15.871,127.031-145.246,127.031,0,0-130.623,8.8-149.269-98.294Z" style="fill:#ff9aa7"/><path d="M79.532,327.219S65.421,471.137,249.652,471.137c0,0,171.352,9.913,168.847-144.332l20.393,6.6s25.642,157.237-188.246,157.237c0,0-186.376,14.3-189.757-145.985C60.889,344.656,70.228,330.922,79.532,327.219Z" style="fill:#b0e9ff"/><path d="M81.281,325.232l22.609-4.192S74.747,438.987,252.257,447.71c0,0,146.317,6.911,145.246-127.031l21,6.126s23.767,144.332-168.847,144.332C249.652,471.137,65.7,476.715,81.281,325.232Z" style="fill:#80a1d6"/><path d="M397.5,320.679c-11.336-3.935-19.725-1.207-19.725-1.207-5.484,46.465-24.223,72.585-45.607,87.077a11.421,11.421,0,0,1,.832,3.818c.193,5.647-2.963,10.857-6.524,15.244a75.39,75.39,0,0,1-17.519,15.606C409.32,415.308,397.5,320.679,397.5,320.679Z" style="fill:#dd5764"/><path d="M204.139,420.411c.146-.133.3-.257.448-.387-34.544-6.7-54.171-24.327-65.272-43-.176,3.078-.647,6.191-2.374,8.7-4.154,6.043-13.234,5.622-20,2.527,20.86,35.232,58.055,49.783,88.18,55.7C200.488,440.6,204.139,420.411,204.139,420.411Z" style="fill:#dd5764"/><path d="M135.4,443.007c3.3-6.881,10.251-11.692,17.642-13.867a44.514,44.514,0,0,1,7.71-1.508c-21.138-10.241-34.849-23.283-43.65-36.7a55.628,55.628,0,0,0-19.721,15.626C107.252,422.168,120.634,434.02,135.4,443.007Z" style="fill:#4866a8"/><path d="M418.5,326.805l-21-6.126c.98,122.535-121.372,127.186-142.222,127.089-2.416,19.12-22.813,19.226-28.48,22.426a215.115,215.115,0,0,0,22.851.943C442.266,471.137,418.5,326.805,418.5,326.805Z" style="fill:#4866a8"/><path d="M156.412,477.532a30.732,30.732,0,0,1,9.561-8.453,51.133,51.133,0,0,1,17.6-5.561c-39.654-10.3-64.323-29.808-79.626-50.92a20.105,20.105,0,0,1-12.591,6.895,24.575,24.575,0,0,1-11.469-1.458C98.215,449.274,127.354,467.249,156.412,477.532Z" style="fill:#6fa1d8"/><path d="M438.893,333.4l-20.394-6.6c.753,46.358-14.2,77.882-35.485,99.31,4.681.611,9.353,3.3,11.6,7.5,2.416,4.515,2.712,9.635,1.737,14.69C450.029,401.73,438.893,333.4,438.893,333.4Z" style="fill:#6fa1d8"/><path d="M429.773,295.4a28.355,28.355,0,0,0-2.934-7.531c-2.8-4.522-7.86-7.328-13.087-8.319s-10.638-.342-15.827.831-10.477,2.993-14.243,6.761c-2.914,2.915-4.684,6.763-6.189,10.6-2.764,7.047-4.853,14.789-3.016,22.133l.541-.11c5.741-2,12.046-.727,17.988.565l25.111,5.459a38.686,38.686,0,0,1,8.7,2.621c2.871,1.387,5.829,3.555,8.915,2.756A175.9,175.9,0,0,0,429.773,295.4Z" style="fill:#f48a4e"/><path d="M117.681,279.4c-3.977-5.724-11.409-8.35-18.365-7.925s-13.5,3.493-19.373,7.241a21.441,21.441,0,0,0-5.388,4.459c-2.1,2.632-3.018,5.99-3.861,9.251q-5.172,20-9.182,40.278l-1.139,2.183a109.041,109.041,0,0,1,65.957-15.426,278.333,278.333,0,0,0-4.484-28.581C121,286.864,120.02,282.761,117.681,279.4Z" style="fill:#ffda76"/><path d="M126.33,319.456a278.333,278.333,0,0,0-4.484-28.581c-.845-4.011-1.826-8.114-4.165-11.48-3.977-5.724-11.409-8.35-18.365-7.925a30.691,30.691,0,0,0-7.11,1.33,67.9,67.9,0,0,1,.91,8.563c.322,8.85-1.6,18.075-7.058,25.049-3.312,4.232-7.756,7.441-12.382,10.173a89.874,89.874,0,0,1-9.874,5.026q-1.185,5.537-2.29,11.088l-1.139,2.183A109.041,109.041,0,0,1,126.33,319.456Z" style="fill:#f48a4e"/><path d="M79.532,327.219c-9.3,3.7-18.642,17.437-18.642,17.437a177.3,177.3,0,0,0,3.671,33.059A67.234,67.234,0,0,0,82.918,365.5C77.918,343.7,79.532,327.219,79.532,327.219Z" style="fill:#fff"/><path d="M102.352,332.258a72.881,72.881,0,0,1,1.538-11.218l-22.609,4.192a151.984,151.984,0,0,0,.939,40.935A67.113,67.113,0,0,0,102.352,332.258Z" style="fill:#fff"/></g><g data-name="Layer 5" id="Layer_5"><path d="M52.843,221.85c-7.157,34.746,24.72,24.706,45.944,47.933-12.241,3.009-25.511,9.7-31.457,20.64a201.3,201.3,0,0,0-9.013,57.689c-2.868,109.61,96.584,148.4,191.141,145.852,103.3,2.772,202.56-41.338,191.559-159.949a203.949,203.949,0,0,0-7.828-41.945c-4.572-12.395-20.3-18.81-32.278-22.318,8.088-8.225,18.243-13.892,29.056-17.726,14.894-4.422,20.8-14.448,17.18-29.748a461.4,461.4,0,0,0-11.026-55.96c-9.614-32.44-18.693-66.76-38.708-94.521C375.884,48.5,345.937,34.428,317.026,22.453c-36.7-15.229-70.3-23.556-108.806-8.88-37.986,12.6-79.117,29.38-106.59,59.418-13.2,16.849-20.375,38.955-27.325,58.937A461.55,461.55,0,0,0,52.843,221.85Zm135.413-194.9c21.391,15.91,29.01,41.417,34.433,66.319a139.6,139.6,0,0,0-17.466,3.878c-6.886-21.909-22.768-46.829-43.006-58.834C170.7,34.122,179.4,30.338,188.256,26.948ZM425.78,402.465a128.277,128.277,0,0,0-13.178-9.119A130.779,130.779,0,0,0,418.9,375c4.465,2.237,8.4,5.267,12.879,7.536A126.109,126.109,0,0,1,425.78,402.465Zm-17.593,29.9a147.5,147.5,0,0,0-11.179-12.535,119.735,119.735,0,0,0,12.9-20.624c4.493,2.954,8.865,6.185,13.459,8.943A112.071,112.071,0,0,1,408.187,432.363ZM250.539,486.769c-5.741.021-11.541-.1-17.46-.312q-.03-5.769.014-11.539c5.455.03,11.308.814,16.905.075,5.118.729,10.5-.022,15.511-.015q.043,5.776.012,11.554Q257.991,486.77,250.539,486.769Zm-123.478-25.28c2.186-4.777,4.14-9.266,6.687-13.779a146.433,146.433,0,0,0,24.531,12.539c-1.225,4.43-2.372,8.912-3.168,13.438A165.561,165.561,0,0,1,127.061,461.489Zm37.324,1.086a196.46,196.46,0,0,0,26.635,7.343,109.4,109.4,0,0,0-.843,12.331,238.884,238.884,0,0,1-29.306-6.735C162.085,471.215,163.172,466.878,164.385,462.575Zm33,8.562a270.3,270.3,0,0,0,28.955,3.412c-.045,3.872-.006,7.735.146,11.6-9.954-.542-20.078-1.48-30.159-2.943C196.768,479.2,196.975,475.152,197.389,471.137Zm74.87,3.5a272.218,272.218,0,0,0,30.348-3.5c.419,4.07.628,8.176,1.078,12.239-10.484,1.493-21.061,2.4-31.58,2.9C272.26,482.393,272.3,478.517,272.259,474.634Zm36.717-4.716a196.5,196.5,0,0,0,26.635-7.343c1.226,4.352,2.323,8.738,3.556,13.086a229.451,229.451,0,0,1-29.354,6.774A107.665,107.665,0,0,0,308.976,469.918Zm-57.557-2.524a3.9,3.9,0,0,0-1.421.275c-57.766-.475-102.771-13.59-130.731-41.428-2.489-5.046-4.376-11.979-.315-16.687,2.79-3.234,5.74-2.6,8.507-.742,33.108,34.913,78.824,41.763,130.06,41.184,41.865,1.045,69.828-10.669,98.663-24.24,8.6-3.242,13.406,6.461,7.342,12.627C334.234,461.681,298.221,465.979,251.419,467.394ZM244.4,98c4.039.464,13.074.7,11.128,6.891-1.678,5.293-7.747,3.773-12.177,4.567a147.079,147.079,0,0,0-30.082,4.43c-5.944,1.511-11.73,3.565-17.812,4.595-5.72,1.725-11.91,1.79-8.682-6.3C204.022,102.587,224.813,98.623,244.4,98ZM152.11,419.356q4.236-5.412,8.846-10.515a102.687,102.687,0,0,0,14.147,7.9q-2.934,5.893-5.572,11.921A115.631,115.631,0,0,1,152.11,419.356ZM341.1,177c-1.1,4.491-4.211,8.025-6.215,12.106-4.526,8.393-4.195,19.982-12.327,26.1-3.695,2.467-7.3,2.011-9.991-.6-.016-2.678-.2-5.352.034-8.025,9.248.851,11.053-15.712,4.164-20,2.133-5.125,6.348-8.141,10.76-11.153,2.586-1.793,1.074-6.079-2.2-5.229a21.839,21.839,0,0,0-10.825,7.122c1.249-8.587,2.422-20.042,14-19.515C338.289,158.27,343.276,168.11,341.1,177ZM120.853,323.873c.392,3.689.781,7.376,1.282,11.033q-7.739,1.417-15.383,3.27a110.368,110.368,0,0,1-.122-12.672Q113.7,324.391,120.853,323.873Zm112.1-163.223a14.626,14.626,0,0,1,4.915,5.31c-3.283,1.048-5.6,4.318-8.616,6.194,1.835-4.588.727-10.252-2.873-13.425A25.164,25.164,0,0,1,232.948,160.65Zm-21.874,5.935a11.506,11.506,0,0,0,1.756,6.739c-4.027-1.516-8.038-3.8-12.152-5.214,3.9-2.926,7.632-6.172,12.2-7.936A11.8,11.8,0,0,0,211.074,166.585Zm55.814-5.8a23.215,23.215,0,0,1,6.889-2.079,11.969,11.969,0,0,0-3.012,13.413c-3.057-1.864-5.323-5.1-8.634-6.15A14.07,14.07,0,0,1,266.888,160.781Zm21.8,8.441a12.178,12.178,0,0,0-1.33-8.954c4.461,1.784,8.13,4.969,11.958,7.843-4.105,1.412-8.109,3.688-12.127,5.2A11.717,11.717,0,0,0,288.691,169.222ZM390.358,355.283c-5.172-1.815-10.388-3.437-15.65-4.957.721-2.985,1.381-5.985,1.954-9q7.836,1.425,15.578,3.3C391.8,347.947,391.189,351.528,390.358,355.283Zm-18.607,41.481c-3.91-3.146-7.9-6.207-12.015-9.079a78.626,78.626,0,0,0,5.986-10.97c4.941,1.968,9.838,4.036,14.682,6.276A99.318,99.318,0,0,1,371.751,396.764ZM251.033,415.555a305.4,305.4,0,0,1-44.809-2.633c3.806-5.257,1.51-13.757,2.094-20.038,27,7.851,56.348,8.441,83.36.067.5,6.315-1.492,13.538,1.678,19.29C279.251,413.893,265.249,415.611,251.033,415.555Zm-6.225-127.911a85.886,85.886,0,0,0,7.48,6.643c-5.038,3.069-9.374,5.159-14.95,8.138-.257-3.4-.616-6.808-1.053-10.178C239.175,290.834,242,289.254,244.808,287.644Zm-1.019,18.91a68.612,68.612,0,0,0,6.294,6.6c-3.913,2.175-7.649,3.937-11.726,6.315-.151-3.127-.308-6.254-.491-9.379Q240.791,308.281,243.789,306.554Zm62.121-5.061c-.305,15.876.586,31.848-.386,47.677-.95,6.255-5.261,6.665-7.012.079.027-25.741.118-51.486-.024-77.227.359-5.256.708-10.383,2.526-15.359,3.5-3.469,4.479,3.81,4.781,6.154C305.845,275.717,305.92,288.613,305.91,301.493Zm-22.145,87-.113.025a168.074,168.074,0,0,0-.117-16.86,40.489,40.489,0,0,0,8.14-3.447l0,16.52A19.876,19.876,0,0,1,283.765,388.494ZM248.7,368.187c-13.794-.034-28.327-.32-40.376-7.626q0-11.4.016-22.8a39.9,39.9,0,0,0,24.583,11.764c.256,8.3,6.029,11.042,13.757,11.484,8.5,1.007,20.957-.154,20.448-11.488a39.907,39.907,0,0,0,24.543-11.776l0,22.961C278.688,368.083,263.338,368.493,248.7,368.187Zm-32.454,12.479c0,2.513-.107,5.176.09,7.768a18.484,18.484,0,0,1-8.018-3.7l0-16.7a51.175,51.175,0,0,0,8.18,3.257A77.706,77.706,0,0,0,216.246,380.666Zm75.422-73.458,0,20.461c-2.32,3.135-4.731,6.453-8.016,8.658a84.621,84.621,0,0,0-.589-19.554A41.249,41.249,0,0,0,291.668,307.208Zm-14.434,21.986c-.07,3.638-.487,7.33-.465,10.976a47.077,47.077,0,0,1-8.955,2.595c.617-6.335.967-12.692,1.269-19.049a32.384,32.384,0,0,0,8.1-3.037C277.184,323.517,277.289,326.366,277.234,329.194Zm-54.473,0c-.052-2.83.052-5.677.056-8.515a32.409,32.409,0,0,0,8.055,3.029c.31,6.383.654,12.753,1.267,19.049a47.073,47.073,0,0,1-8.913-2.587C223.248,336.526,222.828,332.826,222.761,329.194Zm-6.42,7.133c-3.273-2.2-5.681-5.5-7.992-8.627q.011-10.221.01-20.443a41.288,41.288,0,0,0,8.571,9.516A84.732,84.732,0,0,0,216.341,336.327ZM242.2,342.69c.869-.527,1.728-1.1,2.577-1.695,3.057,4.6,7.168,8.027,10.648,12.252-4.466.25-9.257.955-13.234-.807-2.241-1.582-1.676-4.547-2.069-7.184A21.758,21.758,0,0,1,242.2,342.69Zm17.64,3.216c-.056.479-.088.958-.117,1.431-3.514-3.126-6.1-6.694-9.537-10,3.533-2.028,7.162-3.862,10.858-5.558C260.741,336.5,260.381,341.212,259.835,345.906Zm-15.281-21.771c1.47,2.352,3.244,3.954,4.736,6.181-3.355,1.962-6.508,3.606-9.99,5.861q-.326-4.438-.553-8.881A40.448,40.448,0,0,0,244.554,324.135Zm-14.035-7.7c-12.61-3.424-20.683-16.625-22.172-28.871q-.02-11.32-.07-22.641c8.213,3.251,15.52,8.885,18.533,17.4C229.171,293.418,229.943,304.908,230.519,316.434Zm-92.3,11.657a417.288,417.288,0,0,1,49.148-4.164q-.009,13.291-.012,26.583c-17.029,1.249-33.9,3.4-50.844,5.453a215.06,215.06,0,0,1-2.988-26.973C135.136,328.669,136.727,328.309,138.216,328.091Zm131.72-20.8c.947-19.419,2.9-34.712,22.13-43.921q-.141,11.658-.28,23.318c-1.348,12.574-9.372,26.255-22.351,29.761C269.584,313.392,269.74,310.338,269.936,307.287Zm-8.473,16.975q-3.183,1.406-6.292,2.957c-1.833-2.109-3.563-4.166-5.392-6.234q6-3.222,12.159-6.125C261.774,317.994,261.623,321.128,261.463,324.262Zm-38.658,65.611c-.39-5.737-.718-11.413-.714-17.171a84.806,84.806,0,0,0,8.942,1.331c-.324,5.84-.09,11.216-.035,17.2Q226.882,390.679,222.805,389.873Zm14.259-5.813c-.2-3.2-.258-6.434-.612-9.627,3.229.172,6.462.24,9.663.262a123.257,123.257,0,0,0-.219,17.756q-4.1-.119-8.173-.469C237.805,389.356,237.219,386.547,237.064,384.06Zm15.611,8.433h-.012c-.078-5.92-.205-11.861-.406-17.782,3.61.008,7.413.009,11.27-.138-.355,5.85-.9,11.541-1.255,17.426Q257.484,392.4,252.675,392.493Zm16.359-8.433a91.947,91.947,0,0,0-.052-9.809,81.235,81.235,0,0,0,8.909-1.189c.042,5.653-.344,11.223-.7,16.856-2.713.553-5.448,1-8.193,1.359C269.22,388.828,268.979,386.171,269.034,384.06ZM262.9,300.7c-.195,2.154-.356,4.311-.5,6.468q-3.029,1.365-6.014,2.821a94.279,94.279,0,0,1-6.988-6.565c4.656-2.564,9.36-5.026,14-7.606C263.21,297.45,263.042,299.08,262.9,300.7Zm-61.41.673c.24,4.861-4.839,10.7-7.4,3.52-.038-23.662.224-47.356.127-71.05,1.678,4.227,4.227,8.785,7.814,11.738C201.938,264.167,201.485,282.773,201.487,301.37Zm-45.9,92.741c-.834-.833-1.625-1.671-2.383-2.509,11.631-.8,22.561-2.02,34.128-2.277-.242,11.309,2.771,21.238-12.932,18.355A74.952,74.952,0,0,1,155.59,394.111Zm38.544,16.142c.464-25.895-1.43-52.015,1.773-77.764,8.4-11.737,4.9,26.945,5.588,30.213-.072,14.078.122,28.168,0,42.239C202.281,409.341,198.157,410.651,194.134,410.253Zm105.315-1.114c-2.124-3.718-.634-8.465-.953-12.587.8-4.806-2.481-19.359,3.4-20.286,3.039-.152,3.5,3.833,3.983,6.142q0,13.948-.012,27.9C303.442,410.441,300.72,410.413,299.449,409.139Zm26.006-1.455c-15.355,2.94-12.818-7.278-12.67-18.374,11.48.3,22.374,1.478,33.926,2.289A73.976,73.976,0,0,1,325.455,407.684ZM366.4,330.436a217.967,217.967,0,0,1-3.031,25.506c-16.905-2.031-33.733-4.193-50.721-5.432q-.007-13.291-.012-26.583c18.038.658,36.086,1.693,53.846,5.125C366.45,329.514,366.426,329.976,366.4,330.436ZM264.524,287.275q-3.122,1.775-6.232,3.565a61.42,61.42,0,0,1-7.66-6.507c5.273-2.915,10.69-5.547,16.126-8.135C265.847,279.853,265.113,283.561,264.524,287.275Zm-29.276-1.86a119.21,119.21,0,0,0-3.6-15.033c5.482,2.757,10.313,5.356,16,7.578A129.474,129.474,0,0,0,235.248,285.415Zm-112.066,56c.556,2.95,1.191,5.948,1.909,8.965-5.37,1.554-10.694,3.216-15.971,5.082-.794-3.753-1.36-7.331-1.758-10.66Q115.227,342.883,123.182,341.417Zm-12.5,20.513c5.3-1.874,10.654-3.6,16.08-5.066a140.984,140.984,0,0,0,4.5,13.534c-5.129,2.118-10.186,4.423-15.165,6.837A107.763,107.763,0,0,1,110.682,361.93Zm160-97.974a37.935,37.935,0,0,0-1.358,3.591c-4.479,2.047-9.083,4.136-13.661,6.351-5.443-2.218-10.944-4.1-16.194-6.822-3.661-1.9-7.578-5.2-11.611-6.807-.2-.447-.411-.889-.617-1.334a70.121,70.121,0,0,0,45.655.032C272.1,260.6,271.367,262.266,270.685,263.956Zm-151.67,119.3c4.949-2.3,9.953-4.427,15.005-6.443a94.441,94.441,0,0,0,6,11.032c-4.168,2.922-8.212,6.037-12.175,9.234A95.6,95.6,0,0,1,119.015,383.26ZM349.334,400.5a67.489,67.489,0,0,0,6.4-7.164c3.958,2.854,7.886,5.729,11.727,8.738a97.084,97.084,0,0,1-14.04,13.254q-4.266-5.511-8.877-10.739A54.744,54.744,0,0,0,349.334,400.5Zm33.975-23.552c-4.87-2.349-9.814-4.592-14.827-6.655a140.326,140.326,0,0,0,4.533-13.488c5.306,1.423,10.55,3.1,15.731,4.922A113.019,113.019,0,0,1,383.309,376.949Zm9.634-38.936q-7.539-1.807-15.165-3.19.553-3.52,1-7.055c3.017-4.218,8.671-4.765,14.439-4.077A109.71,109.71,0,0,1,392.943,338.013Zm-79.838-207.02a68.73,68.73,0,0,0-3.01,10.559c-11.157-15.532-43.538-17.67-52.136,1.591-1.3,3.524,2.8,5.543,5.457,4.176,8.686-4.836,17.131-9.909,27.567-6.759,8.621,2.19,13.944,7.337,18.414,14.11,1.346,3.861.206,7.955-.017,11.925-10-6.29-18.74-15.9-31.654-15.218-23.419-.423-29.219,22.318-17.484,38.874,3.038,5.018,9.985,12.885,1.766,16.887-3.894,1.895-.488,7.663,3.392,5.8,18.369-10.616-2.972-25.321-4.416-38.735,19.159,16.636,28.529,2.809,47.631-.521a357.288,357.288,0,0,1-6.517,36.588c-1.928,8.411-3.631,17.105-8.122,24.6-15.8,26.339-60.47,28.122-81.657,7.679-16.827-18-16.419-45.916-20.865-68.86,19.146,3.413,28.393,17.122,47.563.5-1.432,13.316-22.776,28.3-4.421,38.755,3.876,1.859,7.29-3.905,3.392-5.8-11.545-5.293,7.193-19.545,7.575-31.277,2.136-13.809-8.481-25.172-23.294-24.485-12.9-.631-21.649,8.871-31.625,15.2-.282-3.947-1.346-8.054-.047-11.906,4.47-6.772,9.795-11.923,18.416-14.114,10.6-3.189,18.759,1.985,27.577,6.766,2.654,1.355,6.746-.658,5.446-4.182-8.859-19.681-42.167-17.021-52.9-.577-.19-4.083-1.967-7.258-2.917-10.992C225.138,110.969,273.988,110.775,313.105,130.993ZM170.841,157.829c11.936-1.124,13.364,10.629,14.541,19.354a21.772,21.772,0,0,0-10.707-6.984c-3.252-.842-4.812,3.421-2.2,5.229,4.428,3.02,8.615,6.012,10.761,11.153-6.891,4.292-5.082,20.856,4.164,20.011.232,2.673.048,5.348.032,8.026-2.487,2.45-5.8,3.092-9.366.967-8.529-5.671-8.3-17.325-12.592-25.744-2.034-4.359-5.414-8.1-6.575-12.841C156.786,168.382,161.387,158.727,170.841,157.829Zm-68.316,100.3a492.747,492.747,0,0,1,84.7-7.945q.024,15.087.1,30.167c-20.142,1.207-40.06,3.773-60.117,5.974C122.517,274.852,113,265,102.525,258.132ZM64.8,346.65A20.192,20.192,0,0,1,76.52,333.4a140.948,140.948,0,0,0,.2,14.349c-4.017,1.52-8.009,3.132-11.914,4.914Q64.751,349.66,64.8,346.65Zm19.8-16.209c4.647-1.343,9.315-2.527,14.044-3.5A124.754,124.754,0,0,0,102.9,363.8c.5,5.959,3.621,12.959.477,18.564-3.777,5.712-9.533.058-11.855-3.645C83.351,362.282,84.445,337.953,84.6,330.441Zm47.706,72.024c-.038-.042-.074-.085-.111-.127,3.866-3.043,7.825-5.946,11.814-8.824A63.881,63.881,0,0,0,155.2,404.873q-4.521,5.137-8.7,10.556A97.614,97.614,0,0,1,132.31,402.465Zm49.249,16.93a118.661,118.661,0,0,0,19.545,5.371c-1.453,4.145-2.736,8.351-3.9,12.586a155.383,155.383,0,0,1-21.357-6.165Q178.545,425.216,181.559,419.4Zm26.354,6.483c6.9.93,14.9,1.334,22.157,2.221-.714,4.441-1.124,8.99-1.518,13.447a219.613,219.613,0,0,1-24.771-2.89C205.036,434.354,206.423,430.1,207.913,425.878Zm28.839,2.627a247.636,247.636,0,0,0,27.12-.727c.48,4.739,1.178,9.482,1.695,14.219-9.975.2-20.543.14-30.418-.118C235.638,437.424,236.28,432.963,236.752,428.505Zm35.413,13.2c-.42-4.753-.847-9.616-1.645-14.34a166.126,166.126,0,0,0,21.556-1.508c1.528,4.333,2.947,8.693,4.227,13.108A207.6,207.6,0,0,1,272.165,441.708Zm30.72-4.024c-1.192-4.355-2.506-8.679-4-12.94a118.644,118.644,0,0,0,19.533-5.387q3.077,5.964,5.841,12.072A148.237,148.237,0,0,1,302.885,437.684Zm27.658-8.837q-2.683-6.153-5.678-12.161a90.565,90.565,0,0,0,14.087-7.944q4.638,5.145,8.917,10.592A112.622,112.622,0,0,1,330.543,428.847Zm67.629-24.66c-4.225,6.416-11.881,8.534-15.293.833-.884-5.729.678-10.478,2.845-15.219,15.181-26.817,15.83-54.384,15.456-64.569,4.989,1.26,9.36,2.366,14.133,4.016C416.115,340.4,416.582,373.442,398.172,404.187Zm25.259-71.814a101.4,101.4,0,0,1,11.37,5.746c.275,4.7.4,9.4.309,14.109-3.873-1.761-7.829-3.357-11.81-4.862A139.477,139.477,0,0,0,423.431,332.373Zm-34.073-68.1a60.8,60.8,0,0,0-16.685,22.086c-19.992-2.287-39.915-4.778-60.006-6q.059-15.079.1-30.168a492.725,492.725,0,0,1,84.734,7.952A86.279,86.279,0,0,0,389.358,264.271Zm-83.375-155.9a3.2,3.2,0,0,1,.431,4.529c-3.376,4.571-9.6,3.54-14.444,2.559-6.085-2.343-24.635-3.517-17.593-13.652C284.284,98.849,296.689,105.041,305.983,108.374ZM65.054,359.178c4.147-1.341,8.135-3.266,12.249-4.737.481,4.365,1.194,9.046,2.229,13.948-4.331,2.376-8.3,4.836-12.65,7.3A154.384,154.384,0,0,1,65.054,359.178Zm363.371,13.827c-2.622-1.6-5.267-3.15-7.961-4.616a143.9,143.9,0,0,0,2.27-14.329c4.077,1.493,8.054,3.3,12.146,4.74a156.577,156.577,0,0,1-1.8,16.867C431.522,374.694,429.837,373.865,428.425,373.005ZM83.755,124.619c17.825-5.673,36.562-8.963,55.254-6.12,12.516,1.674,27.117,4.925,36.687,13.535a62.494,62.494,0,0,1,2.032,17.634c-33.7-7.8-69.848-8.038-103.121,2.185Q78.764,138.1,83.755,124.619ZM69.167,308.751c1.8-6.395,2.219-13.721,5.878-19.324-3.015,22.642,30.925,19.428,40.033,5.014a87.963,87.963,0,0,1,4.644,19.72,131.093,131.093,0,0,0-53.546,12.656C66.913,320.72,67.919,314.679,69.167,308.751Zm-.971,73.8c4.49-2.263,8.432-5.309,12.905-7.547a130.779,130.779,0,0,0,6.293,18.346,128.355,128.355,0,0,0-13.177,9.117A128.165,128.165,0,0,1,68.2,382.547Zm8.446,25.593c4.589-2.756,8.958-5.984,13.447-8.936a119.613,119.613,0,0,0,12.9,20.624,146.6,146.6,0,0,0-11.245,12.619A111.176,111.176,0,0,1,76.642,408.14ZM95.96,437.316c3.863-4,7.475-8.258,11.3-12.311a121.586,121.586,0,0,0,20.91,18.939c-2.428,4.736-4.654,9.24-6.9,14.148A120.492,120.492,0,0,1,95.96,437.316Zm248.949,36.5c-.8-4.572-1.955-9.1-3.193-13.571a146.4,146.4,0,0,0,24.531-12.539c2.551,4.515,4.511,9.026,6.7,13.8A169.6,169.6,0,0,1,344.909,473.82Zm33.819-15.7c-2.244-4.944-4.467-9.425-6.9-14.181a121.533,121.533,0,0,0,20.909-18.938c3.8,4.027,7.391,8.257,11.226,12.235A121.036,121.036,0,0,1,378.728,458.124ZM433.8,326.805s-27.588-12.483-53.451-12.643c-.07-9.044,1.62-15.379,4.741-19.511,30.52,18.362,39.856-5.281,39.856-5.281C426.647,288.656,434.194,314.642,433.8,326.805ZM440.958,223c-33.192-9.674-68.131-13.9-102.687-13.6,1.309-8.627,2.753-17.358,7.768-24.709,30.22-2.546,60.477,1.1,89.8,8.43C437.9,203.019,439.535,212.992,440.958,223Zm-15.522-71.133c-33.287-10.239-69.455-10-103.169-2.2a62.5,62.5,0,0,1,2.032-17.634c9.57-8.61,24.171-11.861,36.688-13.536,18.7-2.846,37.442.457,55.279,6.125Q421.276,138.1,425.436,151.867ZM392.868,76.342c1.217,1.506,2.347,3.078,3.437,4.679-25.776.237-54.212,10.882-71.158,30.947a82.014,82.014,0,0,0-8.051-5.28c12.065-21.611,31.422-50.16,59.773-44.887A82.821,82.821,0,0,1,392.868,76.342ZM337.563,38.416C317.4,50.581,301.6,75.3,294.735,97.27a139.145,139.145,0,0,0-17.447-3.918c5.429-24.787,12.9-50.273,34.183-66.16Q324.756,32.232,337.563,38.416ZM275.55,15.689c-16.233,21.339-17.436,49.976-20.064,75.633-3.7-.118-7.285-.127-10.978-.024-2.62-25.7-3.845-54.467-20.2-75.776C241.333,10.367,258.893,11.252,275.55,15.689ZM107.619,75.758a83.244,83.244,0,0,1,15.44-13.946c28.294-5.342,47.645,23.111,59.727,44.663a85.3,85.3,0,0,0-8.124,5.216c-17.829-19.874-44.4-30.409-70.772-30.935C105.068,79.042,106.294,77.362,107.619,75.758ZM62.272,203.106c.6-3.34,1.256-6.67,1.933-10,29.306-7.328,59.55-10.963,89.75-8.419,5.014,7.358,6.458,16.077,7.771,24.709-34.535-.3-69.452,3.92-102.625,13.581C60.068,216.339,61.059,209.708,62.272,203.106Z" style="fill:#3a3245"/><path d="M234.833,216.967a23.22,23.22,0,0,0-13.865,6.843c-3.225,3.222,1.805,8.255,5,5,8.629-8.819,15.472-3.391,25.352-2.866,9.79-2.518,15.209-4.494,23.8,2.769,2.166,1.668,5.452-1.642,3.809-3.809-6.311-8.741-17.548-8.817-26.848-5.762C246.128,219.761,240.9,215.672,234.833,216.967Z" style="fill:#3a3245"/><path d="M268.538,234.623a3,3,0,0,0,0-6c-12.3-.838-24.752-.184-37.081-.4-4.374-.077-4.379,6.744,0,6.8C243.707,235.173,256.339,235.817,268.538,234.623Z" style="fill:#3a3245"/><path d="M268.727,237.4c-5.44,2.556-10.468,4.308-16.586,4.389-7.891.1-14.1-3.154-21.532-4.866-3.672-.845-5.193,3.666-2.429,5.762,12.444,8.13,32.12,8.6,44.144-.622C275.05,239.724,271.579,236.057,268.727,237.4Z" style="fill:#3a3245"/><path d="M240.212,200.208c-6.789,3.449,9.411,11.855,8.371,3.857C248.415,201.758,242.129,199.407,240.212,200.208Z" style="fill:#3a3245"/><path d="M256,206.386c2.023.023,3.552-1.678,5.371-2.386a2.907,2.907,0,0,0-2.229-5.288C255.952,199.235,250.591,205.124,256,206.386Z" style="fill:#3a3245"/></g></svg>